SplineFontDB: 3.0
FontName: SynthMaximaMedium
FullName: Synth Maxima Medium
FamilyName: Synth Maxima
Weight: Book
Copyright: Copyright (c) 2020, 6r1d
UComments: "2020-3-16: Created with FontForge (http://fontforge.org)"
Version: 001.000
ItalicAngle: 0
UnderlinePosition: -102
UnderlineWidth: 51
Ascent: 819
Descent: 205
InvalidEm: 0
LayerCount: 2
Layer: 0 0 "Back" 1
Layer: 1 0 "Fore" 0
XUID: [1021 229 -2093708366 4121802]
StyleMap: 0x0000
FSType: 0
OS2Version: 0
OS2_WeightWidthSlopeOnly: 0
OS2_UseTypoMetrics: 1
CreationTime: 1584372846
ModificationTime: 1584568198
OS2TypoAscent: 0
OS2TypoAOffset: 1
OS2TypoDescent: 0
OS2TypoDOffset: 1
OS2TypoLinegap: 92
OS2WinAscent: 0
OS2WinAOffset: 1
OS2WinDescent: 0
OS2WinDOffset: 1
HheadAscent: 0
HheadAOffset: 1
HheadDescent: 0
HheadDOffset: 1
MarkAttachClasses: 1
DEI: 91125
Encoding: ISO8859-1
UnicodeInterp: none
NameList: AGL For New Fonts
DisplaySize: -48
AntiAlias: 1
FitToEm: 0
WinInfo: 64 16 4
BeginPrivate: 0
EndPrivate
BeginChars: 256 25

StartChar: zero
Encoding: 48 48 0
Width: 1024
VWidth: 0
HStem: -13 21G<112 176> 35 48<176 912> 303 24<176 213 245 912> 447 32<294.551 854.995> 531 48<176 912> 607 20G<112 176>
VStem: 112 64<-13 35 83 303 327 531 579 627> 213 32<141.005 303 327 394.389>
LayerCount: 2
Fore
SplineSet
213 328 m 1
 217 422 264 477 362 479 c 1
 839 479 l 2
 848 479 855 472 855 463 c 0
 855 454 848 447 839 447 c 2
 362 447 l 1
 279 445 249 406 245 327 c 1
 912 327 l 1
 912 303 l 1
 245 303 l 1
 245 157 l 2
 245 148 238 141 229 141 c 0
 220 141 213 148 213 157 c 2
 213 303 l 1
 176 303 l 1
 176 83 l 1
 912 83 l 1
 912 35 l 1
 176 35 l 1
 176 -13 l 1
 112 -13 l 1
 112 627 l 1
 176 627 l 1
 176 579 l 1
 912 579 l 1
 912 531 l 1
 176 531 l 1
 176 327 l 1
 213 327 l 1
 213 328 l 1
EndSplineSet
Validated: 1
EndChar

StartChar: one
Encoding: 49 49 1
Width: 1024
VWidth: 0
HStem: -13 21G<112 176> 35 48<176 912> 303 24<176 829 861 912> 447 32<219.005 779.902> 531 48<176 912> 607 20G<112 176>
VStem: 112 64<-13 35 83 303 327 531 579 627> 829 32<141.005 303 327 396.813>
LayerCount: 2
Fore
SplineSet
713 479 m 1
 811 477 857 421 861 328 c 1
 861 327 l 1
 912 327 l 1
 912 303 l 1
 861 303 l 1
 861 157 l 2
 861 148 854 141 845 141 c 0
 836 141 829 148 829 157 c 2
 829 303 l 1
 176 303 l 1
 176 83 l 1
 912 83 l 1
 912 35 l 1
 176 35 l 1
 176 -13 l 1
 112 -13 l 1
 112 627 l 1
 176 627 l 1
 176 579 l 1
 912 579 l 1
 912 531 l 1
 176 531 l 1
 176 327 l 1
 829 327 l 1
 825 406 795 445 712 447 c 1
 235 447 l 2
 226 447 219 454 219 463 c 0
 219 472 226 479 235 479 c 2
 713 479 l 1
EndSplineSet
Validated: 1
EndChar

StartChar: two
Encoding: 50 50 2
Width: 1024
VWidth: 0
HStem: -13 21G<112 176> 35 48<176 912> 142 32<209 381.976 676.002 849> 303 24<176 423 458 601 636 912> 446 32<486.899 570.948> 531 48<176 912> 607 20G<112 176>
VStem: 112 64<-13 35 83 303 327 531 579 627> 426 32<236.717 303 327 407.875> 601 32<234.748 303 327 406.304>
LayerCount: 2
Fore
SplineSet
601 327 m 1
 590 384 594 446 529 446 c 0
 464 446 469 384 458 327 c 1
 601 327 l 1
112 627 m 1
 176 627 l 1
 176 579 l 1
 912 579 l 1
 912 531 l 1
 176 531 l 1
 176 327 l 1
 426 327 l 1
 433 367 434 404 451 435 c 0
 465 460 492 478 529 478 c 0
 605 478 623 413 631 346 c 0
 632 340 632 333 633 327 c 1
 912 327 l 1
 912 303 l 1
 636 303 l 1
 641 257 650 210 676 189 c 0
 683 184 704 178 723 176 c 0
 742 174 758 174 758 174 c 1
 849 174 l 1
 849 142 l 1
 758 142 l 1
 727 144 681 145 657 164 c 0
 619 195 609 244 603 303 c 1
 455 303 l 1
 449 245 440 194 402 164 c 0
 378 145 332 144 301 142 c 1
 209 142 l 1
 209 174 l 1
 301 174 l 1
 301 174 317 174 336 176 c 0
 355 178 375 184 382 189 c 0
 409 211 418 257 423 303 c 1
 176 303 l 1
 176 83 l 1
 912 83 l 1
 912 35 l 1
 176 35 l 1
 176 -13 l 1
 112 -13 l 1
 112 627 l 1
EndSplineSet
Validated: 1
EndChar

StartChar: three
Encoding: 51 51 3
Width: 1024
VWidth: 0
HStem: -13 21G<112 176> 35 48<176 912> 139 32<481.545 582.221> 303 24<176 427 462 602 637 912> 442 33<212 384.509 680.491 852> 531 48<176 912> 607 20G<112 176>
VStem: 112 64<-13 35 83 303 327 531 579 627> 430 36<185.431 303 327 385.375> 598 37<185.431 303 327 383.762>
LayerCount: 2
Fore
SplineSet
112 627 m 5
 176 627 l 5
 176 579 l 5
 912 579 l 5
 912 531 l 5
 176 531 l 5
 176 327 l 5
 427 327 l 5
 421 370 411 406 385 428 c 4
 375 437 334 443 310 443 c 4
 306 443 304 442 304 442 c 5
 212 442 l 5
 212 475 l 5
 310 475 l 6
 346 475 382 474 406 453 c 4
 442 423 453 380 460 327 c 5
 605 327 l 5
 612 380 623 423 659 453 c 4
 683 473 719 475 754 475 c 6
 852 475 l 5
 852 442 l 5
 760 442 l 5
 760 442 758 443 754 443 c 4
 730 443 690 437 680 428 c 4
 654 406 643 370 637 327 c 5
 912 327 l 5
 912 303 l 5
 635 303 l 5
 630 254 630 192 608 165 c 4
 592 145 567 139 532 139 c 4
 497 139 473 145 457 165 c 4
 435 192 435 254 430 303 c 5
 176 303 l 5
 176 83 l 5
 912 83 l 5
 912 35 l 5
 176 35 l 5
 176 -13 l 5
 112 -13 l 5
 112 627 l 5
462 303 m 5
 464 287 465 271 466 254 c 4
 469 216 475 194 482 185 c 4
 491 173 508 171 532 171 c 4
 556 171 573 173 582 185 c 4
 589 194 595 216 598 254 c 4
 599 271 600 287 602 303 c 5
 462 303 l 5
EndSplineSet
Validated: 1
EndChar

StartChar: four
Encoding: 52 52 4
Width: 1024
VWidth: 0
HStem: -13 21G<112 176> 35 48<176 912> 140 32<596 849> 303 24<176 510 552 912> 445 32<209 471> 531 48<176 912> 607 20G<112 176>
VStem: 112 64<-13 35 83 303 327 531 579 627>
LayerCount: 2
Fore
SplineSet
112 627 m 1
 176 627 l 1
 176 579 l 1
 912 579 l 1
 912 531 l 1
 176 531 l 1
 176 327 l 1
 510 327 l 1
 471 445 l 1
 209 445 l 1
 209 477 l 1
 494 477 l 1
 544 327 l 1
 912 327 l 1
 912 303 l 1
 552 303 l 1
 596 172 l 1
 849 172 l 1
 849 140 l 1
 573 140 l 1
 518 303 l 1
 176 303 l 1
 176 83 l 1
 912 83 l 1
 912 35 l 1
 176 35 l 1
 176 -13 l 1
 112 -13 l 1
 112 627 l 1
EndSplineSet
Validated: 1
EndChar

StartChar: A
Encoding: 65 65 5
Width: 1024
VWidth: 0
Flags: W
HStem: -13 21G<112 176> 35 48<176 912> 110 29<579 618> 144 29<424.261 462.276> 232 29<209 293.285 774.859 849> 303 24<176 310 348 387 417 464 493 549 579 631 662 730 764 912> 410 30<352.469 384.778> 460 30<493 549> 478 29<674 711.486> 531 48<176 912> 607 20G<112 176>
VStem: 112 64<-13 35 83 303 327 531 579 627> 323 29<327 409.625> 387 29<178.179 303 327 408.781> 464 29<174.729 303 327 460> 549 30<139 303 327 460>
LayerCount: 2
Fore
SplineSet
579 303 m 1xfe7f
 579 139 l 1
 618 139 l 1
 631 303 l 1
 579 303 l 1xfe7f
442 173 m 0
 460 173 464 183 464 202 c 2
 464 303 l 1
 417 303 l 1
 418 255 420 211 420 203 c 0
 422 188 427 173 442 173 c 0
369 410 m 0
 360 410 351 404 352 389 c 1
 352 376 l 2
 352 361 351 344 348 327 c 1
 387 327 l 1
 387 349 386 370 386 388 c 0
 386 404 376 410 369 410 c 0
493 460 m 1xff7f
 493 327 l 1
 549 327 l 1
 549 460 l 1
 493 460 l 1xff7f
674 478 m 1xfeff
 662 327 l 1
 730 327 l 1
 724 364 724 419 717 450 c 0
 713 464 710 478 697 478 c 2
 674 478 l 1xfeff
493 202 m 2
 493 168 476 144 442 144 c 0
 411 144 392 171 390 201 c 0
 389 211 388 256 387 303 c 1
 342 303 l 1
 341 299 339 296 337 292 c 0
 325 261 301 232 259 232 c 2
 209 232 l 1
 209 261 l 1
 259 261 l 2
 288 261 301 280 310 303 c 1
 176 303 l 1
 176 83 l 1
 912 83 l 1
 912 35 l 1
 176 35 l 1
 176 -13 l 1
 112 -13 l 1
 112 627 l 1
 176 627 l 1
 176 579 l 1
 912 579 l 1
 912 531 l 1
 176 531 l 1
 176 327 l 1
 317 327 l 1
 321 345 323 363 323 379 c 2
 323 390 l 2
 323 418 345 440 369 440 c 0
 393 440 416 418 416 388 c 2
 416 327 l 1
 464 327 l 1
 464 490 l 1
 579 490 l 1xff7f
 579 327 l 1
 633 327 l 1
 647 507 l 1
 697 507 l 2
 765 507 751 387 760 327 c 1
 912 327 l 1
 912 303 l 1
 764 303 l 1
 768 282 777 261 800 261 c 2
 849 261 l 1
 849 232 l 1
 800 232 l 2
 768 232 749 255 740 279 c 0
 737 287 736 295 734 303 c 1
 660 303 l 1
 645 110 l 1
 549 110 l 1
 549 303 l 1
 493 303 l 1
 493 202 l 2
EndSplineSet
Validated: 1
EndChar

StartChar: exclam
Encoding: 33 33 6
Width: 1024
VWidth: 0
HStem: -13 21G<112 176> 35 48<176 315 331 400 416 720 736 826 860 912> 395 32<417 716> 531 48<176 295 343 912> 607 20G<112 176>
VStem: 112 64<-13 35 83 85 184 531 579 627> 315 16<83 492> 400 16<83 395> 720 16<83 339>
LayerCount: 2
Fore
SplineSet
736 339 m 1
 736 83 l 1
 826 83 l 1
 736 339 l 1
416 395 m 1
 416 83 l 1
 720 83 l 1
 720 384 l 1
 716 395 l 1
 416 395 l 1
331 492 m 1
 331 83 l 1
 400 83 l 1
 400 395 l 1
 331 492 l 1
315 493 m 1
 176 85 l 1
 176 83 l 1
 315 83 l 1
 315 493 l 1
176 531 m 1
 176 184 l 1
 295 531 l 1
 176 531 l 1
112 627 m 1
 176 627 l 1
 176 579 l 1
 912 579 l 1
 912 531 l 1
 343 531 l 1
 417 427 l 1
 739 427 l 1
 860 83 l 1
 912 83 l 1
 912 35 l 1
 176 35 l 1
 176 -13 l 1
 112 -13 l 1
 112 627 l 1
EndSplineSet
Validated: 1
EndChar

StartChar: quotedbl
Encoding: 34 34 7
Width: 1024
VWidth: 0
HStem: -13 21G<112 176> 35 48<192 315 331 400 416 714 730 826 860 912> 395 32<417 714> 531 48<176 277 344 912> 607 20G<112 176>
VStem: 112 64<-13 35 234 531 579 627> 315 16<83 446> 400 16<83 395> 714 16<83 357>
LayerCount: 2
Fore
SplineSet
730 357 m 5
 730 83 l 5
 826 83 l 5
 730 357 l 5
416 395 m 5
 416 83 l 5
 714 83 l 5
 714 395 l 5
 416 395 l 5
315 446 m 5
 192 83 l 5
 315 83 l 5
 315 446 l 5
331 492 m 5
 331 83 l 5
 400 83 l 5
 400 395 l 5
 331 492 l 5
176 531 m 5
 176 234 l 5
 277 531 l 5
 176 531 l 5
112 627 m 5
 176 627 l 5
 176 579 l 5
 912 579 l 5
 912 531 l 5
 344 531 l 5
 344 530 l 5
 417 427 l 5
 739 427 l 5
 860 83 l 5
 912 83 l 5
 912 35 l 5
 176 35 l 5
 176 -13 l 5
 112 -13 l 5
 112 627 l 5
EndSplineSet
Validated: 1
EndChar

StartChar: numbersign
Encoding: 35 35 8
Width: 1024
VWidth: 0
HStem: -13 21G<112 176> 35 48<176 315 331 400 416 714 730 826 860 912> 395 32<448 714> 531 48<176 295 371 912> 607 20G<112 176>
VStem: 112 64<-13 35 83 85 184 531 579 627> 315 16<83 477> 400 16<83 383> 714 16<83 357>
LayerCount: 2
Fore
SplineSet
730 357 m 5
 730 83 l 5
 826 83 l 5
 730 357 l 5
714 395 m 5
 614.666666667 395 515.333333333 395 416 395 c 5
 416 83 l 5
 714 83 l 5
 714 395 l 5
331 477 m 5
 331 83 l 5
 400 83 l 5
 400 383 l 5
 331 477 l 5
315 493 m 5
 176 85 l 5
 176 83 l 5
 315 83 l 5
 315 493 l 5
176 531 m 5
 176 184 l 5
 295 531 l 5
 176 531 l 5
112 627 m 5
 176 627 l 5
 176 579 l 5
 912 579 l 5
 912 531 l 5
 371 531 l 5
 448 427 l 5
 739 427 l 5
 860 83 l 5
 912 83 l 5
 912 35 l 5
 176 35 l 5
 176 -13 l 5
 112 -13 l 5
 112 627 l 5
EndSplineSet
Validated: 1
EndChar

StartChar: dollar
Encoding: 36 36 9
Width: 1024
VWidth: 0
HStem: -13 21G<112 176> 35 48<176 315 331 400 416 714 730 826 860 912> 347 80<417 714> 531 48<176 295 343 912> 607 20G<112 176>
VStem: 112 64<-13 35 83 85 184 531 579 627> 315 16<83 492> 400 16<83 347> 714 16<83 347>
LayerCount: 2
Fore
SplineSet
416 347 m 5
 416 83 l 5
 714 83 l 5
 714 347 l 5
 416 347 l 5
730 357 m 5
 730 83 l 5
 826 83 l 5
 730 357 l 5
331 492 m 5
 331 83 l 5
 400 83 l 5
 400 395 l 5
 331 492 l 5
315 493 m 5
 176 85 l 5
 176 83 l 5
 315 83 l 5
 315 493 l 5
176 531 m 5
 176 184 l 5
 295 531 l 5
 176 531 l 5
112 627 m 5
 176 627 l 5
 176 579 l 5
 912 579 l 5
 912 531 l 5
 343 531 l 5
 417 427 l 5
 739 427 l 5
 860 83 l 5
 912 83 l 5
 912 35 l 5
 176 35 l 5
 176 -13 l 5
 112 -13 l 5
 112 627 l 5
EndSplineSet
Validated: 1
EndChar

StartChar: percent
Encoding: 37 37 10
Width: 1024
VWidth: 0
HStem: -13 21G<112 176> 35 48<176 315 331 400 416 717 733 808 868.364 912> 395 32<417 682> 531 48<176 295 343 912> 607 20G<112 176>
VStem: 112 64<-13 35 83 85 184 531 579 627> 315 16<83 492> 400 16<83 395> 717 16<83 269>
LayerCount: 2
Fore
SplineSet
733 269 m 5
 733 83 l 5
 808 83 l 5
 733 269 l 5
416 395 m 5
 416 83 l 5
 717 83 l 5
 717 309 l 5
 682 395 l 5
 416 395 l 5
331 492 m 5
 331 83 l 5
 400 83 l 5
 400 395 l 5
 331 492 l 5
315 493 m 5
 176 85 l 5
 176 83 l 5
 315 83 l 5
 315 493 l 5
176 531 m 5
 176 184 l 5
 295 531 l 5
 176 531 l 5
112 627 m 5
 176 627 l 5
 176 579 l 5
 912 579 l 5
 912 531 l 5
 343 531 l 5
 417 427 l 5
 739 427 l 5
 784 311 831 198 877 83 c 5
 912 83 l 5
 912 35 l 5
 176 35 l 5
 176 -13 l 5
 112 -13 l 5
 112 627 l 5
EndSplineSet
Validated: 1
EndChar

StartChar: B
Encoding: 66 66 11
Width: 1024
VWidth: 0
Flags: W
HStem: -13 21G<112 176> 35 48<176 912> 303 24<176 216 238 264 289 298 322 331 355 373 423 433 458 471 495 505 529 544 592 608 632 646 695 714 738 744 769 780 804 830 852 912> 531 48<176 912> 607 20G<112 176>
VStem: 112 64<-13 35 83 303 327 531 579 627> 283 21<156 221.856> 293 27<301.457 303 327 369> 316 22<410.904 479> 351 22<110 172.883> 385 22<364.684 411> 402 21<268 303> 420 22<185 231.99> 454 22<426.293 492> 489 22<156 226.246> 523 21<421.848 471> 558 21<231 277.918> 592 21<443.633 500> 627 21<134 194.57> 660 22<361.14 425> 695 22<105 172.584> 729 22<401.665 470> 764 22<147 212.777>
LayerCount: 2
Fore
SplineSet
769 303 m 1xfc47fe
 774 251 l 1
 780 303 l 1
 769 303 l 1xfc47fe
695 303 m 1
 705 212 l 1
 714 303 l 1
 695 303 l 1
632 303 m 1
 638 237 l 1
 646 303 l 1
 632 303 l 1
495 303 m 1
 500 260 l 1
 505 303 l 1
 495 303 l 1
423 303 m 1xfc57fe
 429 268 l 1
 433 303 l 1
 423 303 l 1xfc57fe
355 303 m 1
 363 215 l 1
 373 303 l 1
 355 303 l 1
289 303 m 1
 293 260 l 1xfd47fe
 298 303 l 1
 289 303 l 1
741 360 m 1
 738 327 l 1
 744 327 l 1
 741 360 l 1
327 369 m 1
 322 327 l 1
 331 327 l 1
 327 369 l 1
535 384 m 1
 529 327 l 1
 544 327 l 1
 535 384 l 1
465 390 m 1
 458 327 l 1
 471 327 l 1
 465 390 l 1
601 401 m 1
 592 327 l 1
 608 327 l 1
 601 401 l 1
813 408 m 1
 804 327 l 1
 830 327 l 1
 813 408 l 1
255 411 m 1
 238 327 l 1
 264 327 l 1
 255 411 l 1
112 627 m 1
 176 627 l 1
 176 579 l 1
 912 579 l 1
 912 531 l 1
 176 531 l 1
 176 327 l 1
 216 327 l 1
 248 482 l 1
 269 482 l 1
 286 327 l 1
 300 327 l 1
 316 479 l 1
 338 479 l 1
 352 327 l 1
 376 327 l 1
 385 411 l 1
 407 411 l 1
 420 327 l 1
 436 327 l 1
 454 492 l 1
 476 492 l 1
 493 327 l 1
 507 327 l 1
 523 471 l 1
 544 471 l 1
 565 327 l 1
 570 327 l 1
 592 500 l 1
 613 500 l 1
 630 327 l 1
 649 327 l 1
 660 425 l 1
 682 425 l 1
 692 327 l 1
 716 327 l 1
 729 470 l 1
 751 470 l 1
 766 327 l 1
 782 327 l 1
 798 478 l 1
 819 478 l 1
 852 327 l 1
 912 327 l 1
 912 303 l 1
 802 303 l 1
 786 147 l 1
 764 147 l 1
 747 303 l 1
 736 303 l 1
 717 105 l 1
 695 105 l 1
 674 303 l 1
 668 303 l 1
 648 134 l 1
 627 134 l 1
 610 303 l 1
 588 303 l 1
 579 231 l 1
 558 231 l 1
 547 303 l 1
 526 303 l 1
 511 156 l 1
 489 156 l 1
 474 303 l 1
 455 303 l 1
 442 185 l 1
 420 185 l 1xfeeffe
 402 303 l 1
 395 303 l 1
 373 110 l 1
 351 110 l 1
 333 303 l 1
 320 303 l 1xfd57fe
 304 156 l 1
 283 156 l 1xfe47fe
 267 303 l 1
 176 303 l 1
 176 83 l 1
 912 83 l 1
 912 35 l 1
 176 35 l 1
 176 -13 l 1
 112 -13 l 1
 112 627 l 1
EndSplineSet
Validated: 1
EndChar

StartChar: C
Encoding: 67 67 12
Width: 1024
VWidth: 0
Flags: W
HStem: -13 21G<112 176> 35 48<176 912> 108 33<320.163 433.427> 303 24<176 209 242 513 546 817 848.197 912> 477 32<622.536 739.931> 531 48<176 912> 607 20G<112 176>
VStem: 112 64<-13 35 83 303 327 531 579 627> 209 33<232.453 303> 513 32<232.453 303 327 385.79> 817 32<327 388.836>
LayerCount: 2
Fore
SplineSet
242 303 m 1
 244 244 271 191 311 163 c 0
 332 149 355 141 378 141 c 0
 401 141 423 149 444 163 c 0
 484 191 511 244 513 303 c 1
 242 303 l 1
684 477 m 0
 600 477 553 403 546 327 c 1
 817 327 l 1
 812 381 786 429 748 456 c 0
 729 469 707 477 684 477 c 0
378 108 m 0
 275 108 212 208 209 303 c 1
 176 303 l 1
 176 83 l 1
 912 83 l 1
 912 35 l 1
 176 35 l 1
 176 -13 l 1
 112 -13 l 1
 112 627 l 1
 176 627 l 1
 176 579 l 1
 912 579 l 1
 912 531 l 1
 176 531 l 1
 176 327 l 1
 514 327 l 1
 519 391 548 449 596 483 c 1
 597 483 l 1
 624 501 654 509 684 509 c 0
 785 509 842 416 849 327 c 1
 912 327 l 1
 912 303 l 1
 545 303 l 1
 542 208 482 108 378 108 c 0
EndSplineSet
Validated: 1
EndChar

StartChar: D
Encoding: 68 68 13
Width: 1024
VWidth: 0
Flags: W
HStem: -13 21G<112 176> 35 48<176 912> 303 24<176 347 440 627 719 912> 531 48<176 912> 607 20G<112 176>
VStem: 112 64<-13 35 83 303 327 531 579 627>
LayerCount: 2
Fore
SplineSet
533 418 m 1
 440 327 l 1
 627 327 l 1
 533 418 l 1
112 627 m 1
 176 627 l 1
 176 579 l 1
 912 579 l 1
 912 531 l 1
 176 531 l 1
 176 327 l 1
 372 327 l 1
 514 465 l 2
 518 470 527 475 533 475 c 2
 534 475 l 2
 541 475 549 470 553 465 c 2
 695 327 l 1
 912 327 l 1
 912 303 l 1
 719 303 l 1
 846 180 l 2
 850 176 853 169 853 163 c 0
 853 150 843 139 830 139 c 0
 825 139 817 142 813 146 c 2
 652 303 l 1
 415 303 l 1
 254 146 l 2
 250 142 242 139 237 139 c 0
 224 139 213 150 213 163 c 0
 213 169 217 176 221 180 c 2
 347 303 l 1
 176 303 l 1
 176 83 l 1
 912 83 l 1
 912 35 l 1
 176 35 l 1
 176 -13 l 1
 112 -13 l 1
 112 627 l 1
EndSplineSet
Validated: 1
EndChar

StartChar: E
Encoding: 69 69 14
Width: 1024
VWidth: 0
Flags: W
HStem: -13 21G<112 176> 35 48<176 912> 303 24<176 309 365 512 568 716 772 912> 531 48<176 912> 607 20G<112 176>
VStem: 112 64<-13 35 83 303 327 531 579 627>
LayerCount: 2
Fore
SplineSet
568 303 m 1
 642 197 l 1
 716 303 l 1
 568 303 l 1
439 431 m 1
 365 327 l 1
 512 327 l 1
 439 431 l 1
438 475 m 2
 440 475 l 2
 445 475 451 471 453 466 c 1
 551 327 l 1
 733 327 l 1
 832 468 l 2
 835 472 840 475 845 475 c 0
 854 475 861 468 861 459 c 0
 861 456 860 452 858 450 c 2
 772 327 l 1
 912 327 l 1
 912 303 l 1
 755 303 l 1
 657 162 l 1
 655 157 648 153 642 153 c 2
 641 153 l 2
 636 153 629 157 627 162 c 1
 529 303 l 1
 349 303 l 1
 248 160 l 2
 245 156 240 153 235 153 c 0
 226 153 219 160 219 169 c 0
 219 172 220 177 222 179 c 2
 309 303 l 1
 176 303 l 1
 176 83 l 1
 912 83 l 1
 912 35 l 1
 176 35 l 1
 176 -13 l 1
 112 -13 l 1
 112 627 l 1
 176 627 l 1
 176 579 l 1
 912 579 l 1
 912 531 l 1
 176 531 l 1
 176 327 l 1
 326 327 l 1
 424 466 l 1
 426 471 432 475 438 475 c 2
EndSplineSet
Validated: 1
EndChar

StartChar: F
Encoding: 70 70 15
Width: 1024
VWidth: 0
Flags: W
HStem: -13 21G<112 176> 35 48<176 912> 139 31<219.02 228> 303 24<176 495 616 827 859 912> 531 48<176 912> 607 20G<112 176>
VStem: 112 64<-13 35 83 303 327 531 579 627> 827 32<139.005 303 327 432>
LayerCount: 2
Fore
SplineSet
827 432 m 1
 616 327 l 1
 827 327 l 1
 827 432 l 1
843 475 m 0
 852 475 859 467 859 459 c 2
 859 327 l 1
 912 327 l 1
 912 303 l 1
 859 303 l 1
 859 155 l 2
 859 146 852 139 843 139 c 0
 834 139 827 146 827 155 c 2
 827 303 l 1
 568 303 l 1
 243 141 l 2
 241 140 237 139 235 139 c 0
 226 139 219 146 219 155 c 0
 219 161 223 168 228 170 c 2
 495 303 l 1
 176 303 l 1
 176 83 l 1
 912 83 l 1
 912 35 l 1
 176 35 l 1
 176 -13 l 1
 112 -13 l 1
 112 627 l 1
 176 627 l 1
 176 579 l 1
 912 579 l 1
 912 531 l 1
 176 531 l 1
 176 327 l 1
 543 327 l 1
 833 472 l 2
 835 474 840 475 843 475 c 0
EndSplineSet
Validated: 1
EndChar

StartChar: G
Encoding: 71 71 16
Width: 1024
VWidth: 0
Flags: W
HStem: -13 21G<112 176> 35 48<176 912> 303 24<176 218 290 507 539 772 843 912> 531 48<176 912> 607 20G<112 176>
VStem: 112 64<-13 35 83 303 327 531 579 627> 507 32<183 303 327 432>
LayerCount: 2
Fore
SplineSet
539 303 m 1
 539 183 l 1
 772 303 l 1
 539 303 l 1
507 432 m 1
 290 327 l 1
 507 327 l 1
 507 432 l 1
523 475 m 0
 533 475 540 465 539 456 c 1
 539 327 l 1
 912 327 l 1
 912 303 l 1
 843 303 l 1
 533 142 l 1
 520 132 505 144 507 158 c 1
 507 303 l 1
 176 303 l 1
 176 83 l 1
 912 83 l 1
 912 35 l 1
 176 35 l 1
 176 -13 l 1
 112 -13 l 1
 112 627 l 1
 176 627 l 1
 176 579 l 1
 912 579 l 1
 912 531 l 1
 176 531 l 1
 176 327 l 1
 218 327 l 1
 514 472 l 2
 517 474 520 475 523 475 c 0
EndSplineSet
Validated: 1
EndChar

StartChar: H
Encoding: 72 72 17
Width: 1024
VWidth: 0
Flags: W
HStem: -13 21G<112 176> 35 48<176 912> 139 32<212.005 501> 303 24<176 501 533 820 852 912> 443 32<533 820> 531 48<176 912> 607 20G<112 176>
VStem: 112 64<-13 35 83 303 327 531 579 627> 501 32<171 303 327 443> 820 32<139.005 303 327 443>
LayerCount: 2
Fore
SplineSet
533 443 m 1
 533 327 l 1
 820 327 l 1
 820 443 l 1
 533 443 l 1
112 627 m 1
 176 627 l 1
 176 579 l 1
 912 579 l 1
 912 531 l 1
 176 531 l 1
 176 327 l 1
 501 327 l 1
 501 459 l 2
 501 463 502 467 505 470 c 1
 506 470 l 1
 509 473 513 475 517 475 c 2
 836 475 l 2
 840 475 844 472 847 470 c 1
 848 470 l 1
 851 467 852 463 852 459 c 2
 852 327 l 1
 912 327 l 1
 912 303 l 1
 852 303 l 1
 852 155 l 2
 852 146 845 139 836 139 c 0
 827 139 820 146 820 155 c 2
 820 303 l 1
 533 303 l 1
 533 155 l 2
 533 151 531 147 529 144 c 1
 528 144 l 1
 525 141 521 139 517 139 c 2
 228 139 l 2
 219 139 212 146 212 155 c 0
 212 164 219 171 228 171 c 2
 501 171 l 1
 501 303 l 1
 176 303 l 1
 176 83 l 1
 912 83 l 1
 912 35 l 1
 176 35 l 1
 176 -13 l 1
 112 -13 l 1
 112 627 l 1
EndSplineSet
Validated: 1
EndChar

StartChar: I
Encoding: 73 73 18
Width: 1024
VWidth: 0
Flags: W
HStem: -13 21G<112 176> 35 48<176 912> 146 32<362 464 657 820> 303 24<176 212 244 330 362 464 496 625 657 820 852 912> 438 32<244 330 496 625> 531 48<176 912> 607 20G<112 176>
VStem: 112 64<-13 35 83 303 327 531 579 627> 212 32<139.005 303 327 438> 330 32<178 303 327 438> 464 32<178 303 327 438> 625 32<178 303 327 438> 820 32<178 303 327 473.995>
LayerCount: 2
Fore
SplineSet
657 303 m 1
 657 178 l 1
 820 178 l 1
 820 303 l 1
 657 303 l 1
362 303 m 1
 362 178 l 1
 464 178 l 1
 464 303 l 1
 362 303 l 1
496 438 m 1
 496 327 l 1
 625 327 l 1
 625 438 l 1
 496 438 l 1
244 438 m 1
 244 327 l 1
 330 327 l 1
 330 438 l 1
 244 438 l 1
346 146 m 2
 338 146 330 154 330 162 c 2
 330 303 l 1
 244 303 l 1
 244 155 l 2
 244 146 237 139 228 139 c 0
 219 139 212 146 212 155 c 2
 212 303 l 1
 176 303 l 1
 176 83 l 1
 912 83 l 1
 912 35 l 1
 176 35 l 1
 176 -13 l 1
 112 -13 l 1
 112 627 l 1
 176 627 l 1
 176 579 l 1
 912 579 l 1
 912 531 l 1
 176 531 l 1
 176 327 l 1
 212 327 l 1
 212 454 l 2
 212 462 220 470 228 470 c 2
 346 470 l 2
 350 470 354 467 357 465 c 1
 358 465 l 1
 361 462 362 458 362 454 c 2
 362 327 l 1
 464 327 l 1
 464 454 l 2
 464 458 465 462 468 465 c 1
 469 465 l 1
 472 468 476 470 480 470 c 2
 641 470 l 2
 649 470 657 462 657 454 c 2
 657 327 l 1
 820 327 l 1
 820 458 l 2
 820 467 827 474 836 474 c 0
 845 474 852 467 852 458 c 2
 852 327 l 1
 912 327 l 1
 912 303 l 1
 852 303 l 1
 852 162 l 2
 852 158 850 154 848 151 c 1
 847 151 l 1
 844 148 840 146 836 146 c 2
 641 146 l 2
 637 146 633 149 630 151 c 1
 629 151 l 1
 626 154 625 158 625 162 c 2
 625 303 l 1
 496 303 l 1
 496 162 l 2
 496 154 488 146 480 146 c 2
 346 146 l 2
EndSplineSet
Validated: 1
EndChar

StartChar: a
Encoding: 97 97 19
Width: 1024
VWidth: 0
HStem: -73 86<265.967 446.396 551.232 728.943> 655 32<339.887 660.451>
VStem: 202 44<31.8209 76.3536> 690 35<594 628.627> 748 47<31.8209 76.6714>
LayerCount: 2
Fore
SplineSet
439 13 m 1
 442 39 467 67 498 67 c 0
 501 67 503 66 506 66 c 1
 776 659 l 2
 778 664 783 668 788 668 c 0
 800 669 808 658 803 647 c 2
 534 55 l 1
 548 45 556 30 558 13 c 1
 674 13 l 2
 718 13 748 42 748 86 c 1
 712 395 l 1
 741 460 l 1
 794 18 l 2
 794 15 795 12 795 9 c 0
 795 -37 750 -73 703 -73 c 2
 294 -73 l 2
 247 -73 202 -37 202 9 c 0
 202 12 203 15 203 18 c 2
 273 596 l 2
 279 646 314 687 364 687 c 2
 634 687 l 2
 684 687 719 646 725 596 c 1
 725 594 l 1
 696 530 l 1
 690 582 l 1
 690 626 655 655 611 655 c 2
 389 655 l 2
 345 655 314 626 310 582 c 1
 246 86 l 1
 246 42 276 13 320 13 c 2
 439 13 l 1
EndSplineSet
Validated: 1
EndChar

StartChar: b
Encoding: 98 98 20
Width: 1024
VWidth: 0
HStem: -81 32<274 369 401 496 528 623 655 750> 663 32<274 344 416 476 548 608 680 750>
VStem: 242 32<-49 663> 344 72<353 663> 476 72<353 663> 608 72<353 663> 750 32<-49 663>
LayerCount: 2
Fore
SplineSet
258 695 m 2
 766 695 l 2
 775 695 782 688 782 679 c 2
 782 -65 l 2
 782 -74 775 -81 766 -81 c 2
 258 -81 l 2
 249 -81 242 -74 242 -65 c 2
 242 679 l 2
 242 688 249 695 258 695 c 2
274 663 m 1
 274 -49 l 1
 369 -49 l 1
 369 353 l 1
 344 353 l 1
 344 663 l 1
 274 663 l 1
416 663 m 1
 416 353 l 1
 401 353 l 1
 401 -49 l 1
 496 -49 l 1
 496 353 l 1
 476 353 l 1
 476 663 l 1
 416 663 l 1
548 663 m 1
 548 353 l 1
 528 353 l 1
 528 -49 l 1
 623 -49 l 1
 623 353 l 1
 608 353 l 1
 608 663 l 1
 548 663 l 1
680 663 m 1
 680 353 l 1
 655 353 l 1
 655 -49 l 1
 750 -49 l 1
 750 663 l 1
 680 663 l 1
EndSplineSet
Validated: 1
EndChar

StartChar: c
Encoding: 99 99 21
Width: 1024
VWidth: 0
Flags: W
HStem: 169 31<486 493 524 531>
VStem: 204 21<379.339 484.574> 280 21<390.053 473.789> 355 21<400.58 463> 454 32<200 693.996> 473 71<-77.3438 -13.2856> 493 31<-27.5728 169> 531 32<200 693.996> 648 21<400.58 463> 723 21<390.053 473.789> 799 21<379.339 484.574>
LayerCount: 2
Fore
SplineSet
470 694 m 0xfae0
 479 694 486 688 486 679 c 2
 486 200 l 1
 501 200 516 200 531 200 c 1
 531 679 l 2
 531 688 538 694 547 694 c 0
 556 694 563 688 563 679 c 2
 563 187 l 1xfbe0
 564 182 561 178 558 174 c 2
 558 173 l 1
 554 169 549 168 544 169 c 1xf4e0
 524 169 l 1
 524 -13 l 1xf2e0
 536 -19 544 -31 544 -45 c 0
 544 -65 528 -80 508 -80 c 0
 488 -80 473 -65 473 -45 c 0xf4e0
 473 -31 481 -19 493 -13 c 1
 493 169 l 1
 472 169 l 1
 462 167 452 178 454 187 c 1
 454 679 l 2
 454 688 461 694 470 694 c 0xfae0
313 587 m 1
 320 568 l 1
 263 547 225 493 225 432 c 0
 225 371 263 317 320 296 c 1
 313 276 l 1
 248 300 204 362 204 432 c 0
 204 502 248 563 313 587 c 1
711 587 m 1
 776 563 820 502 820 432 c 0
 820 362 776 300 711 276 c 1
 704 296 l 1
 761 317 799 371 799 432 c 0
 799 493 761 547 704 568 c 1
 711 587 l 1
357 541 m 1
 364 521 l 1
 326 507 301 472 301 432 c 0
 301 392 326 356 364 342 c 1
 357 323 l 1
 311 340 280 383 280 432 c 0
 280 481 311 524 357 541 c 1
667 541 m 1
 713 524 744 481 744 432 c 0
 744 383 713 340 667 323 c 1
 660 342 l 1
 698 356 723 392 723 432 c 0
 723 472 698 507 660 521 c 1
 667 541 l 1
402 500 m 1
 409 480 l 1
 389 473 376 454 376 432 c 0
 376 410 389 390 409 383 c 1
 402 363 l 1
 373 373 355 402 355 432 c 0
 355 462 373 490 402 500 c 1
622 500 m 1
 651 490 669 462 669 432 c 0
 669 402 651 373 622 363 c 1
 615 383 l 1
 635 390 648 410 648 432 c 0
 648 454 635 473 615 480 c 1
 622 500 l 1
EndSplineSet
Validated: 1
EndChar

StartChar: d
Encoding: 100 100 22
Width: 1024
VWidth: 0
Flags: W
HStem: 120 32<189.005 240 272 323.995> 184 32<529.005 581 613 664.995> 248 32<359.005 411 443 494.995> 376 32<700.005 752 784 835.995>
VStem: 240 32<-79.9949 120 152 693.996> 411 32<-79.9949 248 280 693.996> 581 32<-79.9949 184 216 693.996> 752 32<-79.9949 376 408 692.922>
LayerCount: 2
Fore
SplineSet
256 694 m 0
 265 694 272 688 272 679 c 2
 272 152 l 1
 308 152 l 2
 317 152 324 145 324 136 c 0
 324 127 317 120 308 120 c 2
 272 120 l 1
 272 -64 l 2
 272 -73 265 -80 256 -80 c 0
 247 -80 240 -73 240 -64 c 2
 240 120 l 1
 205 120 l 2
 196 120 189 127 189 136 c 0
 189 145 196 152 205 152 c 2
 240 152 l 1
 240 679 l 2
 240 688 247 694 256 694 c 0
427 694 m 0
 436 694 443 688 443 679 c 2
 443 280 l 1
 479 280 l 2
 488 280 495 273 495 264 c 0
 495 255 488 248 479 248 c 2
 443 248 l 1
 443 -64 l 2
 443 -73 436 -80 427 -80 c 0
 418 -80 411 -73 411 -64 c 2
 411 248 l 1
 375 248 l 2
 366 248 359 255 359 264 c 0
 359 273 366 280 375 280 c 2
 411 280 l 1
 411 679 l 2
 411 688 418 694 427 694 c 0
597 694 m 0
 606 694 613 688 613 679 c 2
 613 216 l 1
 649 216 l 2
 658 216 665 209 665 200 c 0
 665 191 658 184 649 184 c 2
 613 184 l 1
 613 -64 l 2
 613 -73 606 -80 597 -80 c 0
 588 -80 581 -73 581 -64 c 2
 581 184 l 1
 545 184 l 2
 536 184 529 191 529 200 c 0
 529 209 536 216 545 216 c 2
 581 216 l 1
 581 679 l 2
 581 688 588 694 597 694 c 0
767 694 m 2
 768 694 l 2
 777 694 784 688 784 679 c 2
 784 408 l 1
 820 408 l 2
 829 408 836 401 836 392 c 0
 836 383 829 376 820 376 c 2
 784 376 l 1
 784 -64 l 2
 784 -73 777 -80 768 -80 c 0
 759 -80 752 -73 752 -64 c 2
 752 376 l 1
 716 376 l 2
 707 376 700 383 700 392 c 0
 700 401 707 408 716 408 c 2
 752 408 l 1
 752 679 l 2
 752 688 758 694 767 694 c 2
EndSplineSet
Validated: 1
EndChar

StartChar: e
Encoding: 101 101 23
Width: 1024
VWidth: 0
HStem: 123 35<392 468> 479 35<392 468>
VStem: 357 35<158 479> 468 35<75 123 158 479 514 549> 636 35<-21 645>
LayerCount: 2
Fore
SplineSet
653 696 m 0
 663 696 671 689 671 679 c 2
 671 -55 l 2
 671 -65 663 -73 653 -73 c 0
 650 -73 646 -71 643 -69 c 2
 475 51 l 2
 471 54 468 61 468 66 c 2
 468 123 l 1
 375 123 l 2
 365 123 357 130 357 140 c 2
 357 496 l 2
 357 506 365 514 375 514 c 2
 468 514 l 1
 468 558 l 2
 468 563 471 569 475 572 c 2
 643 693 l 2
 645 695 650 696 653 696 c 0
636 645 m 1
 503 549 l 1
 503 75 l 1
 636 -21 l 1
 636 645 l 1
392 479 m 1
 392 158 l 1
 468 158 l 1
 468 479 l 1
 392 479 l 1
EndSplineSet
Validated: 1
EndChar

StartChar: f
Encoding: 102 102 24
Width: 1024
VWidth: 0
HStem: 123 35<392 420> 479 35<392 468>
VStem: 357 35<158 479> 468 35<75 75 270 479 514 549> 636 35<-21 372 567 645>
LayerCount: 2
Fore
SplineSet
793 735 m 0
 803 735 811 727 811 717 c 0
 811 714 809 710 808 708 c 2
 355 -95 l 2
 352 -100 346 -104 340 -104 c 0
 330 -104 322 -96 322 -86 c 0
 322 -83 324 -79 325 -77 c 2
 777 725 l 2
 780 730 787 735 793 735 c 0
653 696 m 0
 663 696 671 689 671 679 c 2
 671 567 l 1
 636 504 l 1
 636 645 l 1
 503 549 l 1
 503 456 503 363 503 270 c 1
 468 208 l 1
 468 479 l 1
 392 479 l 1
 392 158 l 1
 440 158 l 1
 420 123 l 1
 375 123 l 2
 365 123 357 130 357 140 c 2
 357 496 l 2
 357 506 365 514 375 514 c 2
 468 514 l 1
 468 558 l 2
 468 563 471 569 475 572 c 2
 643 693 l 2
 645 695 650 696 653 696 c 0
671 434 m 1
 671 -55 l 2
 671 -65 663 -73 653 -73 c 0
 650 -73 646 -71 643 -69 c 2
 475 51 l 2
 471 54 468 61 468 66 c 2
 468 75 l 1
 503 137 l 1
 503 75 l 1
 636 -21 l 1
 636 372 l 1
 671 434 l 1
EndSplineSet
Validated: 1
EndChar
